<svg xmlns="http://www.w3.org/2000/svg" version="1.1" xmlns:xlink="http://www.w3.org/1999/xlink" xmlns:svgjs="http://svgjs.dev/svgjs" width="1500" height="1500" viewBox="0 0 1500 1500"><rect width="1500" height="1500" fill="#121d40"></rect><g transform="matrix(0.6666666666666666,0,0,0.6666666666666666,249.39393939393938,696.0181525572211)"><svg viewBox="0 0 396 43" data-background-color="#121d40" preserveAspectRatio="xMidYMid meet" height="162" width="1500" xmlns="http://www.w3.org/2000/svg" xmlns:xlink="http://www.w3.org/1999/xlink"><g id="tight-bounds" transform="matrix(1,0,0,1,0.2400000000000091,-0.007227407041767719)"><svg viewBox="0 0 395.52 43.014454814083535" height="43.014454814083535" width="395.52"><g><svg viewBox="0 0 429.21842938144334 46.6793" height="43.014454814083535" width="395.52"><g><svg viewBox="0 0 429.21842938144334 46.6793" height="46.6793" width="429.21842938144334"><g id="textblocktransform"><svg viewBox="0 0 429.21842938144334 46.6793" height="46.6793" width="429.21842938144334" id="textblock"><g><svg viewBox="0 0 429.21842938144334 46.6793" height="46.6793" width="429.21842938144334"><g><svg><g></g><g></g></svg></g><g><svg><g><svg></svg></g><g></g></svg></g><g id="text-0"><svg viewBox="0 0 429.21842938144334 46.6793" height="46.6793" width="429.21842938144334"><g transform="matrix(1,0,0,1,0,8.88965)"><svg width="220.95000000000002" viewBox="3.5 -28.8 220.94 28.85" height="28.85" data-palette-color="#fbfbfb"><path d="M3.5-14.75L3.5-25.3 9.2-28.75 19.5-28.75 19.5-22.85 9.6-22.85 9.6-17.2 19.5-17.2 19.5-11.35 9.2-11.35 3.5-14.75ZM37.95-3.4L37.95-13.75 32.05-17.2 21.75-17.2 21.75-11.35 31.65-11.35 31.65-5.65 21.95-5.65 21.95 0 32.05 0 37.95-3.4ZM3.5-9.1L9.8-9.1 9.8-5.65 19.5-5.65 19.5 0 9.35 0 3.5-3.4 3.5-9.1ZM31.65-19.45L37.95-19.45 37.95-25.3 32.05-28.75 21.75-28.75 21.75-22.85 31.65-22.85 31.65-19.45ZM72.65-21.85L72.65 0 66.4 0 66.4-2.25 58.9 0 58.9-5.25 66.4-5.25 66.4-21.85 72.65-21.85ZM42.85-21.85L42.85-3.45 48.5 0 56.6 0 56.6-5.25 49.15-5.25 49.15-21.85 42.85-21.85ZM111.45-28.8L111.45 0 97.85 0 97.85-5.25 105.15-5.25 105.15-17.25 97.65-17.25 97.65-21.9 105.15-21.9 105.15-28.8 111.45-28.8ZM81.65-3.45L81.65-18.45 87.35-21.9 95.45-21.9 95.45-17.25 87.75-17.25 87.75-5.25 95.25-5.25 95.25 0 87.35 0 81.65-3.45ZM120.44-3.5L120.44-18.55 126.29-22 134.19-22 134.19-17.3 126.69-17.3 126.69-5.4 134.19-5.4 134.19-0.05 126.29-0.05 120.44-3.5ZM149.79-3.5L149.79-18.55 143.94-22 135.99-22 135.99-17.3 143.54-17.3 143.54-5.4 135.99-5.4 135.99-0.05 143.94-0.05 149.79-3.5ZM158.79 0.05L158.79-28.75 165.09-28.75 165.09-13.1 167.89-13.1 167.89-9.45 165.09-9.45 165.09 0.05 158.79 0.05ZM188.64-3.4L176.09-11.5 187.54-19.05 183.39-22 170.39-13.1 170.39-9.45 182.99 0.05 188.64-3.4ZM224.44-21.85L224.44 0 218.19 0 218.19-2.25 210.69 0 210.69-5.25 218.19-5.25 218.19-21.85 224.44-21.85ZM194.64-21.85L194.64-3.45 200.29 0 208.39 0 208.39-5.25 200.94-5.25 200.94-21.85 194.64-21.85Z" opacity="1" transform="matrix(1,0,0,1,0,0)" fill="#fbfbfb" class="undefined-yy-0"></path></svg></g><g><svg xmlns:sketch="http://www.bohemiancoding.com/sketch/ns" xmlns="http://www.w3.org/2000/svg" xmlns:xlink="http://www.w3.org/1999/xlink" version="1.1" x="231.97070000000002" y="0" viewBox="-165.5 232.5 54.5 97" style="enable-background:new -189 231 100 100;" xml:space="preserve" height="46.6793" width="26.227029381443298" class="icon-cg-0" data-fill-palette-color="accent" id="cg-0"><g fill="#ff851b" data-fill-palette-color="accent"><path d="M-112.5 266v-5c0-5.3-3.7-9.8-8.6-11.1-0.9-2.6-1.4-6.7-1.4-9.9 0-4.1-3.4-7.5-7.5-7.5h-18c-4.1 0-7.5 3.4-7.5 7.5 0 3.2-0.5 7.3-1.4 9.9-4.9 1.3-8.6 5.8-8.6 11.1v40c0 5.3 3.7 9.8 8.6 11.1 0.9 2.6 1.4 6.7 1.4 9.9 0 4.1 3.4 7.5 7.5 7.5h18c4.1 0 7.5-3.4 7.5-7.5 0-3.2 0.5-7.3 1.4-9.9 4.9-1.3 8.6-5.8 8.6-11.1v-25c0.8 0 1.5-0.7 1.5-1.5v-7C-111 266.7-111.7 266-112.5 266zM-152.5 240c0-2.5 2-4.5 4.5-4.5h18c2.5 0 4.5 2 4.5 4.5 0 1.4 0.1 5.8 1.1 9.5h-29.3C-152.6 245.8-152.5 241.4-152.5 240zM-125.5 322c0 2.5-2 4.5-4.5 4.5h-18c-2.5 0-4.5-2-4.5-4.5 0-1.4-0.1-5.8-1.1-9.5h29.3C-125.4 316.2-125.5 320.6-125.5 322zM-115.5 301c0 4.7-3.8 8.5-8.5 8.5h-30c-4.7 0-8.5-3.8-8.5-8.5v-40c0-4.7 3.8-8.5 8.5-8.5h30c4.7 0 8.5 3.8 8.5 8.5V301z" fill="#ff851b" data-fill-palette-color="accent"></path></g><path d="M-137.7 290.3l-1.3 1.3-1.3-1.3-1.4 1.4 1.3 1.3-1.3 1.3 1.4 1.4 1.3-1.3 1.3 1.3 1.4-1.4-1.3-1.3 1.3-1.3L-137.7 290.3zM-151 290.5c-1.4 0-2.5 1.1-2.5 2.5s1.1 2.5 2.5 2.5c1.4 0 2.5-1.1 2.5-2.5S-149.6 290.5-151 290.5zM-151 293.5c-0.3 0-0.5-0.2-0.5-0.5s0.2-0.5 0.5-0.5 0.5 0.2 0.5 0.5S-150.7 293.5-151 293.5zM-125.7 278.3l-1.3 1.3-1.3-1.3-1.4 1.4 1.3 1.3-1.3 1.3 1.4 1.4 1.3-1.3 1.3 1.3 1.4-1.4-1.3-1.3 1.3-1.3L-125.7 278.3zM-125.7 266.3l-1.3 1.3-1.3-1.3-1.4 1.4 1.3 1.3-1.3 1.3 1.4 1.4 1.3-1.3 1.3 1.3 1.4-1.4-1.3-1.3 1.3-1.3L-125.7 266.3zM-123 273.5h-8.5V265h-3v8.5h-9V265h-3v8.5h-8.5v3h8.5v9h-8.5v3h8.5v8.5h3v-8.5h9v8.5h3v-8.5h8.5v-3h-8.5v-9h8.5V273.5zM-134.5 285.5h-9v-9h9V285.5zM-139 283.5c1.4 0 2.5-1.1 2.5-2.5s-1.1-2.5-2.5-2.5c-1.4 0-2.5 1.1-2.5 2.5S-140.4 283.5-139 283.5zM-139 280.5c0.3 0 0.5 0.2 0.5 0.5s-0.2 0.5-0.5 0.5-0.5-0.2-0.5-0.5S-139.3 280.5-139 280.5zM-136.5 269c0-1.4-1.1-2.5-2.5-2.5-1.4 0-2.5 1.1-2.5 2.5s1.1 2.5 2.5 2.5C-137.6 271.5-136.5 270.4-136.5 269zM-139.5 269c0-0.3 0.2-0.5 0.5-0.5s0.5 0.2 0.5 0.5-0.2 0.5-0.5 0.5S-139.5 269.3-139.5 269z" fill="#ff851b" data-fill-palette-color="accent"></path></svg></g><g transform="matrix(1,0,0,1,269.2184293814433,8.939649999999999)"><svg width="160" viewBox="5 -28.75 159.99 28.8" height="28.8" data-palette-color="#fbfbfb"><path d="M5 0L5-28.75 21-28.75 21-23.1 11.3-23.1 11.3-17.2 21-17.2 21-11.5 11.3-11.5 11.3-5.85 21-5.85 21 0 5 0ZM33.8 0L39.45-3.4 39.45-12.15 34.75-14.35 39.45-16.6 39.45-25.3 33.8-28.75 23.45-28.75 23.45-23.1 33.15-23.1 33.15-17.2 23.45-17.2 23.45-11.5 33.15-11.5 33.15-5.85 23.45-5.85 23.45 0 33.8 0ZM48.45 0.05L48.45-28.75 54.85-28.75 54.85 0.05 48.45 0.05ZM63.85-3.4L63.85-9.75 69.55-13.2 77.75-13.2 77.75-9.35 70.2-9.35 70.2-5.25 77.75-5.25 77.75 0.05 69.55 0.05 63.85-3.4ZM70.2-15.05L63.85-15.05 63.85-18.5 69.55-22 77.75-22 77.75-17.3 70.2-17.3 70.2-15.05ZM93.85 0.05L93.85-18.5 88.15-22 79.95-22 79.95-17.3 87.5-17.3 87.5-13.2 79.95-13.2 79.95-9.35 87.5-9.35 87.5-5.25 80.15-5.25 80.15 0.05 93.85 0.05ZM115.99-22.05L129.89-22.05 115.99-8.75 115.99-16.3 117.24-17.45 115.99-17.45 115.99-22.05ZM113.79-5.1L113.79 0 99.84 0 113.79-13.9 113.79-6.35 112.49-5.1 113.79-5.1ZM99.84-22.05L113.79-22.05 113.79-17.45 99.84-17.45 99.84-22.05ZM115.99-5.3L129.89-5.3 129.89 0 115.99 0 115.99-5.3ZM164.99-18.55L164.99-12.85 159.09-9.4 151.09-9.4 151.09-13.25 158.64-13.25 158.64-17.35 151.09-17.35 151.09-22.05 159.09-22.05 164.99-18.55ZM158.44-6.95L164.99-6.95 164.99-3.45 159.09 0 151.09 0 151.09-5.3 158.44-5.3 158.44-6.95ZM134.79-18.55L134.79-3.45 140.69 0 148.64 0 148.64-5.3 141.09-5.3 141.09-9.4 148.64-9.4 148.64-13.25 141.09-13.25 141.09-17.35 148.64-17.35 148.64-22.05 140.69-22.05 134.79-18.55Z" opacity="1" transform="matrix(1,0,0,1,0,0)" fill="#fbfbfb" class="undefined-yy-1"></path></svg></g></svg></g></svg></g></svg></g></svg></g><g></g></svg></g><defs></defs></svg><rect width="395.52" height="43.014454814083535" fill="none" stroke="none" visibility="hidden"></rect></g></svg></g></svg>