<svg xmlns="http://www.w3.org/2000/svg" version="1.1" xmlns:xlink="http://www.w3.org/1999/xlink" xmlns:svgjs="http://svgjs.dev/svgjs" width="128" height="128" viewBox="0 0 128 128"><g transform="matrix(0.4577777777777778,0,0,0.4577777777777778,34.510452661321125,12.760752631578946)"><svg viewBox="0 0 54 95" data-background-color="#121d40" preserveAspectRatio="xMidYMid meet" height="225" width="128" xmlns="http://www.w3.org/2000/svg" xmlns:xlink="http://www.w3.org/1999/xlink"><g id="tight-bounds" transform="matrix(1,0,0,1,0.17672938144329464,-0.24049999999999727)"><svg viewBox="0 0 53.6465412371134 95.481" height="95.481" width="53.6465412371134"><g><svg viewBox="0 0 53.6465412371134 95.481" height="95.481" width="53.6465412371134"><g><svg viewBox="0 0 53.6465412371134 95.481" height="95.481" width="53.6465412371134"><g id="textblocktransform"><svg viewBox="0 0 53.6465412371134 95.481" height="95.481" width="53.6465412371134" id="textblock"><g><svg viewBox="0 0 53.6465412371134 95.481" height="95.481" width="53.6465412371134"><g><svg viewBox="0 0 53.6465412371134 95.481" height="95.481" width="53.6465412371134"><g><svg xmlns:sketch="http://www.bohemiancoding.com/sketch/ns" xmlns="http://www.w3.org/2000/svg" xmlns:xlink="http://www.w3.org/1999/xlink" version="1.1" x="0" y="0" viewBox="-165.5 232.5 54.5 97" style="enable-background:new -189 231 100 100;" xml:space="preserve" height="95.481" width="53.6465412371134" class="icon-icon-0" data-fill-palette-color="accent" id="icon-0"><g fill="#ff851b" data-fill-palette-color="accent"><path d="M-112.5 266v-5c0-5.3-3.7-9.8-8.6-11.1-0.9-2.6-1.4-6.7-1.4-9.9 0-4.1-3.4-7.5-7.5-7.5h-18c-4.1 0-7.5 3.4-7.5 7.5 0 3.2-0.5 7.3-1.4 9.9-4.9 1.3-8.6 5.8-8.6 11.1v40c0 5.3 3.7 9.8 8.6 11.1 0.9 2.6 1.4 6.7 1.4 9.9 0 4.1 3.4 7.5 7.5 7.5h18c4.1 0 7.5-3.4 7.5-7.5 0-3.2 0.5-7.3 1.4-9.9 4.9-1.3 8.6-5.8 8.6-11.1v-25c0.8 0 1.5-0.7 1.5-1.5v-7C-111 266.7-111.7 266-112.5 266zM-152.5 240c0-2.5 2-4.5 4.5-4.5h18c2.5 0 4.5 2 4.5 4.5 0 1.4 0.1 5.8 1.1 9.5h-29.3C-152.6 245.8-152.5 241.4-152.5 240zM-125.5 322c0 2.5-2 4.5-4.5 4.5h-18c-2.5 0-4.5-2-4.5-4.5 0-1.4-0.1-5.8-1.1-9.5h29.3C-125.4 316.2-125.5 320.6-125.5 322zM-115.5 301c0 4.7-3.8 8.5-8.5 8.5h-30c-4.7 0-8.5-3.8-8.5-8.5v-40c0-4.7 3.8-8.5 8.5-8.5h30c4.7 0 8.5 3.8 8.5 8.5V301z" fill="#ff851b" data-fill-palette-color="accent"></path></g><path d="M-137.7 290.3l-1.3 1.3-1.3-1.3-1.4 1.4 1.3 1.3-1.3 1.3 1.4 1.4 1.3-1.3 1.3 1.3 1.4-1.4-1.3-1.3 1.3-1.3L-137.7 290.3zM-151 290.5c-1.4 0-2.5 1.1-2.5 2.5s1.1 2.5 2.5 2.5c1.4 0 2.5-1.1 2.5-2.5S-149.6 290.5-151 290.5zM-151 293.5c-0.3 0-0.5-0.2-0.5-0.5s0.2-0.5 0.5-0.5 0.5 0.2 0.5 0.5S-150.7 293.5-151 293.5zM-125.7 278.3l-1.3 1.3-1.3-1.3-1.4 1.4 1.3 1.3-1.3 1.3 1.4 1.4 1.3-1.3 1.3 1.3 1.4-1.4-1.3-1.3 1.3-1.3L-125.7 278.3zM-125.7 266.3l-1.3 1.3-1.3-1.3-1.4 1.4 1.3 1.3-1.3 1.3 1.4 1.4 1.3-1.3 1.3 1.3 1.4-1.4-1.3-1.3 1.3-1.3L-125.7 266.3zM-123 273.5h-8.5V265h-3v8.5h-9V265h-3v8.5h-8.5v3h8.5v9h-8.5v3h8.5v8.5h3v-8.5h9v8.5h3v-8.5h8.5v-3h-8.5v-9h8.5V273.5zM-134.5 285.5h-9v-9h9V285.5zM-139 283.5c1.4 0 2.5-1.1 2.5-2.5s-1.1-2.5-2.5-2.5c-1.4 0-2.5 1.1-2.5 2.5S-140.4 283.5-139 283.5zM-139 280.5c0.3 0 0.5 0.2 0.5 0.5s-0.2 0.5-0.5 0.5-0.5-0.2-0.5-0.5S-139.3 280.5-139 280.5zM-136.5 269c0-1.4-1.1-2.5-2.5-2.5-1.4 0-2.5 1.1-2.5 2.5s1.1 2.5 2.5 2.5C-137.6 271.5-136.5 270.4-136.5 269zM-139.5 269c0-0.3 0.2-0.5 0.5-0.5s0.5 0.2 0.5 0.5-0.2 0.5-0.5 0.5S-139.5 269.3-139.5 269z" fill="#ff851b" data-fill-palette-color="accent"></path></svg></g></svg></g></svg></g></svg></g></svg></g><g></g></svg></g><defs></defs></svg><rect width="53.6465412371134" height="95.481" fill="none" stroke="none" visibility="hidden"></rect></g></svg></g></svg>