<?xml version="1.0" standalone="no"?>
<!DOCTYPE svg PUBLIC "-//W3C//DTD SVG 20010904//EN"
 "http://www.w3.org/TR/2001/REC-SVG-20010904/DTD/svg10.dtd">
<svg version="1.0" xmlns="http://www.w3.org/2000/svg"
 width="700.000000pt" height="700.000000pt" viewBox="0 0 700.000000 700.000000"
 preserveAspectRatio="xMidYMid meet">
<metadata>
Created by potrace 1.14, written by Peter Selinger 2001-2017
</metadata>
<g transform="translate(0.000000,700.000000) scale(0.100000,-0.100000)"
fill="#000000" stroke="none">
<path d="M2820 6299 c-64 -7 -145 -52 -206 -113 -86 -87 -122 -170 -129 -306
-15 -268 -35 -422 -71 -531 -14 -44 -18 -47 -85 -74 -202 -79 -364 -265 -413
-475 -13 -57 -15 -226 -13 -1340 l2 -1275 27 -73 c15 -41 42 -99 60 -129 39
-67 145 -179 208 -220 44 -29 67 -41 161 -81 l47 -20 20 -88 c17 -76 26 -124
37 -214 4 -33 16 -190 20 -269 2 -46 10 -100 16 -120 39 -119 124 -218 231
-270 l66 -31 648 0 649 0 63 30 c106 50 200 161 233 275 11 35 17 101 24 252
3 62 7 118 9 125 3 7 7 38 11 68 7 64 41 213 54 239 6 10 29 23 53 30 86 26
162 75 248 161 110 110 168 218 195 365 3 17 5 375 6 798 0 723 1 767 18 767
9 0 29 13 44 28 l27 28 0 233 0 233 -29 29 c-16 16 -36 29 -44 29 -13 0 -15
30 -16 189 -2 213 -15 290 -71 402 -75 148 -215 273 -372 331 -56 20 -59 23
-73 70 -8 27 -17 64 -20 81 -4 18 -7 39 -9 47 -1 8 -6 38 -10 65 -4 28 -10 61
-12 75 -2 14 -6 72 -9 130 -12 240 -22 284 -85 375 -54 79 -155 153 -234 171
-35 8 -1212 11 -1276 3z m1270 -187 c65 -34 121 -104 134 -167 3 -16 8 -79 11
-139 8 -179 30 -360 54 -443 5 -18 9 -34 8 -34 -1 -1 -386 -2 -855 -3 l-853
-2 6 26 c35 133 54 279 61 460 2 63 9 131 15 150 24 73 88 139 163 167 23 8
191 11 621 10 l590 -2 45 -23z m351 -978 c183 -53 315 -186 362 -365 20 -77
21 -2460 1 -2555 -38 -186 -192 -340 -378 -378 -47 -10 -274 -13 -987 -13
-834 0 -933 2 -991 17 -166 43 -287 156 -350 326 l-21 59 -2 1235 c-1 926 2
1250 11 1293 28 138 131 275 252 336 123 62 80 60 1108 60 825 1 948 -1 995
-15z m-141 -3495 c0 -4 -7 -34 -15 -66 -8 -32 -17 -78 -20 -103 -3 -25 -8 -52
-10 -60 -6 -23 -16 -150 -21 -262 -4 -115 -15 -158 -52 -208 -34 -46 -47 -56
-107 -85 l-50 -24 -572 -1 c-553 0 -573 0 -626 20 -67 25 -111 68 -143 135
-19 42 -24 72 -29 196 -3 81 -7 155 -9 165 -2 11 -7 46 -11 79 -3 33 -13 91
-21 128 -8 38 -14 74 -14 81 0 11 156 13 850 13 468 0 850 -3 850 -8z"/>
<path d="M3008 4173 l-3 -248 -240 -2 c-132 0 -243 -2 -247 -2 -5 -1 -8 -39
-8 -86 l0 -85 118 0 c64 -1 177 -1 250 -1 l132 0 -1 -263 0 -262 -237 1 c-130
0 -243 -1 -249 -3 -9 -3 -13 -30 -13 -88 l0 -84 250 0 250 0 -1 -92 c0 -51 0
-164 0 -250 l1 -158 84 0 c72 0 84 3 87 18 3 9 4 122 4 250 l-1 232 263 0 263
0 0 -250 0 -250 85 0 c47 0 85 3 86 8 1 4 2 115 3 247 l1 240 190 2 c105 1
216 2 248 3 l58 0 -3 87 -3 87 -245 0 -245 1 0 260 0 260 160 2 c88 1 199 2
248 3 l87 0 0 88 0 87 -247 0 -248 0 0 245 -1 245 -87 3 -87 3 -2 -248 -3
-248 -257 -1 c-226 0 -258 2 -262 15 -2 9 -4 111 -4 226 0 116 -1 220 -1 233
-1 21 -5 22 -86 22 l-85 0 -2 -247z m702 -687 l0 -262 -262 0 -263 1 -1 262 0
263 263 -1 263 0 0 -263z"/>
<path d="M3381 3612 c-96 -48 -106 -181 -19 -245 40 -29 115 -33 156 -8 157
99 27 338 -137 253z m89 -128 c0 -19 -5 -24 -25 -24 -20 0 -25 5 -25 24 0 13
6 26 13 29 22 7 37 -4 37 -29z"/>
<path d="M4026 4301 l-38 -38 38 -37 c37 -36 37 -36 18 -58 -10 -12 -27 -29
-38 -38 -18 -16 -17 -18 22 -59 l41 -43 35 36 c20 20 37 36 39 36 2 0 21 -16
43 -35 l39 -35 40 40 39 40 -37 38 -37 38 37 37 36 38 -41 41 -41 41 -38 -36
-37 -37 -36 35 c-20 19 -38 35 -41 35 -3 0 -22 -17 -43 -39z"/>
<path d="M3373 4310 c-120 -73 -79 -253 60 -267 112 -11 191 106 141 209 -34
72 -133 100 -201 58z m97 -127 c0 -20 -4 -24 -22 -21 -25 3 -37 36 -17 48 20
13 39 0 39 -27z"/>
<path d="M4027 3602 l-38 -39 26 -24 c48 -45 49 -55 8 -94 l-37 -35 43 -41 43
-42 35 36 c19 21 37 37 39 37 3 0 22 -16 41 -36 l35 -37 41 42 41 41 -36 37
-37 38 36 38 36 39 -42 41 -42 42 -35 -39 -34 -40 -38 37 c-21 20 -40 37 -43
37 -3 0 -22 -17 -42 -38z"/>
<path d="M3325 2900 l-38 -39 38 -35 38 -36 -19 -22 c-10 -13 -28 -31 -39 -41
-19 -18 -18 -18 24 -58 l43 -41 38 37 39 38 36 -38 36 -39 42 42 41 42 -37 38
-37 38 37 37 36 38 -40 41 -41 41 -38 -37 -38 -37 -36 36 c-20 19 -38 35 -41
35 -3 0 -22 -18 -44 -40z"/>
<path d="M2679 2914 c-51 -21 -83 -81 -76 -141 6 -54 31 -92 78 -115 126 -65
262 79 189 200 -40 66 -115 88 -191 56z m95 -119 c6 -18 -20 -39 -39 -31 -18
7 -20 43 -2 49 17 6 34 -2 41 -18z"/>
</g>
</svg>
